<svg height="520" style="background-color: white;" viewBox="0 0 460 520" width="460" xmlns="http://www.w3.org/2000/svg">
<style>
.box-plot{fill:none;stroke:rgb(0,0,0);stroke-width:1;}
.outlier{fill:none;stroke:rgb(0,0,0);stroke-width:1;}
.axis{fill:none;stroke:rgb(0,0,0);stroke-width:1;}
.labels{fill:rgb(0,0,0);font-size:10;font-family:Arial}
.y-labels{text-anchor:end;}
.title{font-family:Arial;font-size:12;text-anchor:middle;}
</style>
<polyline class="axis" points="80 40 80 440 380 440"/>
<g class="labels">
<text transform="translate(110,455) rotate(45)">
2023-05-01
</text>
<text transform="translate(170,455) rotate(45)">
2023-05-02
</text>
<text transform="translate(230,455) rotate(45)">
2023-05-03
</text>
<text transform="translate(290,455) rotate(45)">
2023-05-04
</text>
<text transform="translate(350,455) rotate(45)">
2023-05-05
</text>
</g>
<g class="labels y-labels">
<text transform="translate(70,445)">
50
</text>
<text transform="translate(70,365)">
100
</text>
<text transform="translate(70,285)">
150
</text>
<text transform="translate(70,205)">
200
</text>
<text transform="translate(70,125)">
250
</text>
<text transform="translate(70,45)">
300
</text>
</g>
<g>
<g class="box-plot">
<circle class="outliers" cx="110" cy="440" r="2"/>
<path d="M102.5,296 l15,0 m-7.5,0 L110,328 M100,352 L100,328 l20,0 L120,352 l-20,0 L100,361.6 l20,0 L120,352 M110,361.6 L110,374.4 l-7.5,0 l15,0"/>
</g>
<g class="box-plot">
<path d="M162.5,72 l15,0 m-7.5,0 L170,200 M160,352 L160,200 l20,0 L180,352 l-20,0 L160,355.2 l20,0 L180,352 M170,355.2 L170,360 l-7.5,0 l15,0"/>
</g>
<g class="box-plot">
<path d="M222.5,40 l15,0 m-7.5,0 L230,200 M220,349.6 L220,200 l20,0 L240,349.6 l-20,0 L220,355.2 l20,0 L240,349.6 M230,355.2 L230,360 l-7.5,0 l15,0"/>
</g>
<g class="box-plot">
<path d="M282.5,200 l15,0 m-7.5,0 L290,280 M280,348 L280,280 l20,0 L300,348 l-20,0 L280,355.2 l20,0 L300,348 M290,355.2 L290,363.2 l-7.5,0 l15,0"/>
</g>
<g class="box-plot">
<path d="M342.5,120 l15,0 m-7.5,0 L350,200 M340,355.2 L340,200 l20,0 L360,355.2 l-20,0 L340,360 l20,0 L360,355.2 M350,360 L350,368 l-7.5,0 l15,0"/>
</g>
</g>
<text class="title" x="230" y="20">
Process Startup Time (ms)
</text>
</svg>